# AST/ASF file generated using VICON BodyLanguage
# -----------------------------------------------
:version 1.10
:name VICON
:units
  mass 1.0
  length 0.45
  angle deg
:documentation
   .ast/.asf automatically generated from VICON data using
   VICON BodyBuilder and BodyLanguage model FoxedUp or BRILLIANT.MOD
:root
   order TX TY TZ RX RY RZ
   axis XYZ
   position 0 0 0  
   orientation 0 0 0 
:bonedata
  begin
     id 1 
     name lhipjoint
     direction 0.566809 -0.746272 0.349008 
     length 2.40479 
     axis 0 0 0  XYZ
  end
  begin
     id 2 
     name lfemur
     direction 0.34202 -0.939693 0  
     length 7.1578  
     axis 0 0 20  XYZ
    dof rx ry rz
    limits (-160.0 20.0)
           (-70.0 70.0)
           (-60.0 70.0)
  end
  begin
     id 3 
     name ltibia
     direction 0.34202 -0.939693 0   
     length 7.49137   
     axis 0 0 20   XYZ
    dof rx
    limits (-10.0 170.0)
  end
  begin
     id 4 
     name lfoot
     direction 0.0665746 -0.182912 0.980873   
     length 2.36784   
     axis -90 7.62852e-016 20   XYZ
    dof rx rz
    limits (-45.0 90.0)
           (-70.0 20.0)
  end
  begin
     id 5 
     name ltoes
     direction 1.53601e-011 -4.22058e-011 1   
     length 1.18966   
     axis -90 7.62852e-016 20   XYZ
    dof rx
    limits (-90.0 20.0)
  end
  begin
     id 6 
     name rhipjoint
     direction -0.550236 -0.756381 0.353735   
     length 2.37265  
     axis 0 0 0  XYZ 
  end
  begin
     id 7 
     name rfemur
     direction -0.34202 -0.939693 0   
     length 7.43386   
     axis 0 0 -20   XYZ
    dof rx ry rz
    limits (-160.0 20.0)
           (-70.0 70.0)
           (-70.0 60.0)
  end
  begin
     id 8 
     name rtibia
     direction -0.34202 -0.939693 0   
     length 7.50908   
     axis 0 0 -20   XYZ
    dof rx
    limits (-10.0 170.0)
 end
 begin
     id 9 
     name rfoot
     direction -0.0683029 -0.187661 0.979856   
     length 2.41173  
     axis -90 -7.62852e-016 -20   XYZ
    dof rx rz
    limits (-45.0 90.0)
           (-20.0 70.0)
  end
  begin
     id 10 
     name rtoes
     direction -1.53528e-011 -4.21968e-011 1   
     length 1.21082   
     axis -90 -7.62852e-016 -20   XYZ
    dof rx
    limits (-90.0 20.0)
  end
  begin
     id 11 
     name lowerback
     direction 0.013823 0.995423 -0.0945635   
     length 2.04495   
     axis 0 0 0   XYZ
    dof rx ry rz
    limits (-20.0 45.0)
           (-30.0 30.0)
           (-30.0 30.0)
  end
  begin
     id 12 
     name upperback
     direction 0.0276657 0.9994 -0.020853   
     length 2.05008   
     axis 0 0 0   XYZ
    dof rx ry rz
    limits (-20.0 45.0)
           (-30.0 30.0)
           (-30.0 30.0)
  end
  begin
     id 13 
     name thorax
     direction 0.019782 0.999531 0.0233827   
     length 2.06488   
     axis 0 0 0   XYZ
    dof rx ry rz
    limits (-20.0 45.0)
           (-30.0 30.0)
           (-30.0 30.0)
  end
  begin
     id 14 
     name lowerneck
     direction -0.0308541 0.994709 0.0979874   
     length 1.75553   
     axis 0 0 0   XYZ
    dof rx ry rz
    limits (-20.0 45.0)
           (-30.0 30.0)
           (-30.0 30.0)
  end
  begin
     id 15 
     name upperneck
     direction 0.0588398 0.995804 -0.0700903   
     length 1.76878   
     axis 0 0 0   XYZ
    dof rx ry rz
    limits (-20.0 45.0)
           (-30.0 30.0)
           (-30.0 30.0)
  end
  begin
     id 16
     name head
     direction 0.0209966 0.999159 -0.0352225  
     length 1.77193  
     axis 0 0 0   XYZ
    dof rx ry rz
    limits (-20.0 45.0)
           (-30.0 30.0)
           (-30.0 30.0)
  end
  begin
     id 17 
     name lclavicle
     direction 0.938182 0.335073 -0.0868338  
     length 3.58396  
     axis 0 0 0   XYZ
    dof ry rz
    limits (-20.0 10.0)
           (0.0 20.0)
  end
  begin
     id 18 
     name lhumerus
     direction 1 -4.48971e-011 -1.26313e-017   
     length 4.983   
     axis 180 -30 -90   XYZ
    dof rx ry rz
    limits (-60.0 90.0)
           (-90.0 90.0)
           (-90.0 90.0)
  end
  begin
     id 19
     name lradius
     direction 1 -4.48948e-011 -5.89033e-027   
     length 3.48356   
     axis 180 -30 -90   XYZ
    dof rx
    limits (-10.0 170.0)
  end
  begin
     id 20
     name lwrist
     direction 1 -4.48977e-011 -1.48983e-026   
     length 1.74178   
     axis 9.0955e-015 90 90   XYZ
    dof ry
    limits (-180.0 0.0)
 end
  begin
     id 21 
     name lhand
     direction 1 -4.49046e-011 -2.98066e-026   
     length 0.715259   
     axis 1.90115e-014 90 90   XYZ
    dof rx rz
    limits (-90.0 90.0)
           (-45.0 45.0)
  end
  begin
     id 22 
     name lfingers
     direction 1 -4.48907e-011 -5.95731e-026   
     length 0.576661   
     axis 3.80223e-014 90 90   XYZ
    dof rx
    limits (0.0 90.0)
  end
  begin
     id 23
     name lthumb
     direction 0.707107 -6.34963e-011 0.707107   
     length 0.827973   
     axis -90 45 -3.84942e-014   XYZ
    dof rx rz
    limits (-45.0 45.0)
           (-45.0 45.0)
  end
  begin
     id 24 
     name rclavicle
     direction -0.909637 0.398485 -0.11735   
     length 3.44819  
     axis 0 0 0   XYZ 
    dof ry rz
    limits (-10.0 20.0)
           (-20.0 0.0)
  end
  begin
     id 25 
     name rhumerus
     direction -1 -4.48978e-011 -1.09333e-027  
     length 5.2419   
     axis 180 30 90   XYZ
    dof rx ry rz
    limits (-90.0 60.0)
           (-90.0 90.0)
           (-90.0 90.0)
  end
  begin
     id 26 
     name rradius
     direction -1 -4.48953e-011 -7.61841e-027   
     length 3.44417   
     axis 180 30 90   XYZ
    dof rx
    limits (-10.0 170.0)
  end
  begin
     id 27 
     name rwrist
     direction -1 -4.48977e-011 -1.48983e-026   
     length 1.72209   
     axis 9.0955e-015 -90 -90   XYZ
    dof ry
    limits (-180.0 0.0)
  end
  begin
     id 28
     name rhand
     direction -1 -4.49027e-011 -2.98038e-026   
     length 0.622529   
     axis 1.90115e-014 -90 -90   XYZ
    dof rx rz
    limits (-90.0 90.0)
           (-45.0 45.0)
  end
  begin
     id 29
     name rfingers
     direction -1 -4.48838e-011 -5.95531e-026   
     length 0.501899   
     axis 3.80223e-014 -90 -90   XYZ
    dof rx
    limits (0.0 90.0)
  end
  begin
     id 30
     name rthumb
     direction -0.707107 -6.34937e-011 0.707107   
     length 0.720629   
     axis -90 -45 3.84942e-014   XYZ
    dof rx rz
    limits (-45.0 45.0)
           (-45.0 45.0)
  end
:hierarchy
  begin
    root lhipjoint rhipjoint lowerback
    lhipjoint lfemur
    lfemur ltibia
    ltibia lfoot
    lfoot ltoes
    rhipjoint rfemur
    rfemur rtibia
    rtibia rfoot
    rfoot rtoes
    lowerback upperback
    upperback thorax
    thorax lowerneck lclavicle rclavicle
    lowerneck upperneck
    upperneck head
    lclavicle lhumerus
    lhumerus lradius
    lradius lwrist
    lwrist lhand lthumb
    lhand lfingers
    rclavicle rhumerus
    rhumerus rradius
    rradius rwrist
    rwrist rhand rthumb
    rhand rfingers
  end

#!OML:ASF F:\VICON\USERDATA\Patient Classification 1\PLAYGROUND\JustinFriday\JustinFriday.ASF
:FULLY-SPECIFIED
:DEGREES
1075
root 12.557 26.9584 48.7189 -367.084 -183.459 6.03935
lowerback 6.72103 -0.858227 5.60027
upperback 2.58293 -0.629777 -0.265606
thorax -1.164 -0.221863 -3.37361
lowerneck 0.881484 -1.30055 -4.09851
upperneck -3.7327 -1.50557 6.51204
head -1.24759 -0.751843 2.81636
rclavicle -3.02525e-015 -1.66979e-014
rhumerus 72.4304 3.05326 -84.7671
rradius 34.5987
rwrist 19.6651
rhand -19.4598 -16.2935
rfingers 7.12502
rthumb 6.86134 -46.1624
lclavicle -3.02525e-015 -1.66979e-014
lhumerus 73.1799 -8.10656 69.1182
lradius 36.1923
lwrist -20.9825
lhand -8.91505 -4.36541
lfingers 7.12502
lthumb 17.0282 24.9083
rfemur -12.4306 1.46405 26.4445
rtibia 29.1247
rfoot -25.8548 -8.47564
rtoes 6.82537
lfemur -10.1792 5.77148 -16.389
ltibia 29.7336
lfoot -27.1841 -1.79018
ltoes 4.56155
1076
root 12.5655 26.9537 48.7124 -367.305 -183.837 5.71861
lowerback 7.14401 -0.727892 5.18552
upperback 2.62021 -0.450007 -0.24941
thorax -1.34055 -0.13405 -3.13603
lowerneck 0.772824 -1.2769 -4.24275
upperneck -3.46286 -1.49085 6.54363
head -1.14234 -0.742235 2.84892
rclavicle -4.69629e-015 -2.94201e-014
rhumerus 72.3701 3.19034 -84.4263
rradius 35.2
rwrist 19.0139
rhand -19.1689 -16.6911
rfingers 7.12502
rthumb 7.14216 -46.5506
lclavicle -4.69629e-015 -2.94201e-014
lhumerus 73.035 -7.97611 69.3944
lradius 36.6903
lwrist -20.9213
lhand -8.39261 -3.96562
lfingers 7.12502
lthumb 17.531 25.2639
rfemur -12.2205 1.64688 26.1742
rtibia 29.1776
rfoot -25.8416 -8.42411
rtoes 6.6325
lfemur -9.82776 5.93454 -16.6545
ltibia 29.6817
lfoot -27.2625 -1.56015
ltoes 4.63482
1077
root 12.5605 26.9641 48.7035 -367.084 -183.519 5.67149
lowerback 7.04369 -0.831379 5.23277
upperback 2.56241 -0.593026 -0.206281
thorax -1.35772 -0.2091 -3.1063
lowerneck 0.636829 -1.28365 -4.42221
upperneck -3.21342 -1.5141 6.58978
head -1.03646 -0.750829 2.89356
rclavicle -1.21197e-014 7.95139e-015
rhumerus 72.3208 3.33869 -84.1528
rradius 35.8051
rwrist 18.4895
rhand -18.6844 -17.2977
rfingers 7.12502
rthumb 7.60974 -47.1408
lclavicle -1.21197e-014 7.95139e-015
lhumerus 72.7943 -7.82877 69.5398
lradius 37.3777
lwrist -20.7255
lhand -8.08973 -3.67598
lfingers 7.12502
lthumb 17.8225 25.5273
rfemur -12.4323 1.41957 26.0526
rtibia 29.1952
rfoot -25.8889 -8.61374
rtoes 6.41012
lfemur -10.0852 5.69821 -16.7943
ltibia 29.636
lfoot -27.1585 -1.56718
ltoes 4.51575
1078
root 12.5624 26.9687 48.6936 -367.005 -183.491 5.63662
lowerback 7.07387 -0.849399 5.19946
upperback 2.56755 -0.614828 -0.153543
thorax -1.37046 -0.219685 -3.03093
lowerneck 0.618989 -1.26812 -4.49674
upperneck -3.19455 -1.49619 6.59304
head -1.02807 -0.741253 2.90812
rclavicle 8.44835e-016 6.75868e-015
rhumerus 72.3026 3.46337 -84.2419
rradius 36.3979
rwrist 18.3073
rhand -18.0354 -17.55
rfingers 7.12502
rthumb 8.23616 -47.3695
lclavicle 8.44835e-016 6.75868e-015
lhumerus 72.5861 -7.68532 69.7469
lradius 37.9929
lwrist -20.6743
lhand -8.04634 -3.69458
lfingers 7.12502
lthumb 17.8643 25.5049
rfemur -12.4751 1.41547 26.0145
rtibia 29.1973
rfoot -25.9152 -8.65227
rtoes 6.21224
lfemur -10.1697 5.72598 -16.8282
ltibia 29.6587
lfoot -27.117 -1.63888
ltoes 4.63227
1079
root 12.562 26.9784 48.6823 -366.728 -183.373 5.69734
lowerback 6.93416 -0.89014 5.29415
upperback 2.45651 -0.675933 -0.0962286
thorax -1.41331 -0.257276 -3.02017
lowerneck 1.27919 -1.32681 -4.19713
upperneck -3.93889 -1.56707 6.23195
head -1.38114 -0.789106 2.74942
rclavicle 5.38582e-015 1.51076e-014
rhumerus 72.1095 3.60108 -84.6395
rradius 37.0782
rwrist 18.4042
rhand -17.5965 -17.5622
rfingers 7.12502
rthumb 8.65974 -47.3646
lclavicle 5.38582e-015 1.51076e-014
lhumerus 72.3594 -7.59148 69.9019
lradius 38.4336
lwrist -20.6463
lhand -8.08476 -3.7159
lfingers 7.12502
lthumb 17.8273 25.487
rfemur -12.6864 1.37124 26.0518
rtibia 29.0964
rfoot -25.8322 -8.67964
rtoes 6.09097
lfemur -10.4829 5.64025 -16.807
ltibia 29.7304
lfoot -27.1524 -1.62755
ltoes 4.39243
1080
root 12.5687 26.9746 48.6669 -367.038 -183.495 5.77402
lowerback 7.35263 -0.884086 5.30629
upperback 2.5035 -0.628747 -0.0163913
thorax -1.59245 -0.232274 -2.94575
lowerneck 1.43527 -1.20528 -4.42168
upperneck -3.71675 -1.42805 6.34164
head -1.34482 -0.722856 2.826
rclavicle 5.3237e-015 -7.55382e-015
rhumerus 71.8006 3.72642 -85.047
rradius 37.9113
rwrist 18.6204
rhand -17.2733 -17.9146
rfingers 7.12502
rthumb 8.97158 -47.7039
lclavicle 5.3237e-015 -7.55382e-015
lhumerus 72.0402 -7.53661 69.9728
lradius 39.0677
lwrist -20.4493
lhand -8.10352 -3.54852
lfingers 7.12502
lthumb 17.8092 25.656
rfemur -12.1907 1.61924 26.2051
rtibia 28.9617
rfoot -25.7969 -8.83737
rtoes 5.92324
lfemur -10.0978 5.90813 -16.6028
ltibia 29.8344
lfoot -27.2514 -1.78361
ltoes 4.07276
1081
root 12.5769 26.9892 48.6541 -366.667 -183.897 5.79693
lowerback 7.04323 -0.724989 5.25657
upperback 2.46017 -0.444226 0.0631713
thorax -1.44781 -0.140949 -2.85259
lowerneck 1.28525 -1.25657 -4.58145
upperneck -3.40832 -1.50666 6.49859
head -1.21364 -0.759734 2.90371
rclavicle 5.95112e-015 -3.97569e-015
rhumerus 71.6387 3.83275 -84.954
rradius 38.6494
rwrist 18.4668
rhand -17.2273 -18.3481
rfingers 7.12502
rthumb 9.016 -48.1354
lclavicle 5.95112e-015 -3.97569e-015
lhumerus 71.7843 -7.4224 70.0391
lradius 39.8838
lwrist -20.2394
lhand -7.92868 -3.22629
lfingers 7.12502
lthumb 17.9775 25.9628
rfemur -12.4739 1.88329 26.2832
rtibia 28.7961
rfoot -25.641 -8.60605
rtoes 5.99475
lfemur -10.4564 6.15625 -16.5339
ltibia 29.9279
lfoot -27.2193 -1.72009
ltoes 3.86413
1082
root 12.5732 27.0063 48.6389 -366.204 -183.253 6.08252
lowerback 6.68041 -0.949133 5.61287
upperback 2.36304 -0.74553 0.149773
thorax -1.37558 -0.294201 -2.9403
lowerneck 1.17171 -1.21651 -4.63038
upperneck -3.35133 -1.44825 6.5835
head -1.17844 -0.728266 2.93891
rclavicle 3.44146e-015 -2.3059e-014
rhumerus 71.4317 3.92704 -85.0169
rradius 39.3937
rwrist 18.4343
rhand -17.1624 -18.4637
rfingers 7.12502
rthumb 9.07868 -48.2483
lclavicle 3.44146e-015 -2.3059e-014
lhumerus 71.5256 -7.29848 70.0379
lradius 40.5881
lwrist -19.9964
lhand -7.90547 -3.01196
lfingers 7.12502
lthumb 17.9998 26.1751
rfemur -12.8501 1.63247 26.4979
rtibia 28.6958
rfoot -25.677 -8.92136
rtoes 6.20663
lfemur -11.0513 5.88557 -16.3257
ltibia 29.9902
lfoot -27.0796 -2.18038
ltoes 3.71614
1083
root 12.5782 27.0175 48.618 -365.931 -183.098 6.32378
lowerback 6.56831 -1.01568 5.79903
upperback 2.26971 -0.828266 0.26336
thorax -1.41801 -0.340063 -2.92106
lowerneck 1.267 -1.07285 -4.5227
upperneck -3.6693 -1.23787 6.53763
head -1.31063 -0.6245 2.90635
rclavicle -1.17034e-014 -7.95139e-016
rhumerus 71.0807 4.03951 -85.1305
rradius 40.2111
rwrist 18.4463
rhand -17.0719 -18.6381
rfingers 7.12502
rthumb 9.16598 -48.4189
lclavicle -1.17034e-014 -7.95139e-016
lhumerus 71.1791 -7.21743 70.0841
lradius 41.2226
lwrist -19.8038
lhand -8.04239 -2.76893
lfingers 7.12502
lthumb 17.868 26.4302
rfemur -13.018 1.63288 26.7632
rtibia 28.6383
rfoot -25.7735 -9.09338
rtoes 6.33501
lfemur -11.2922 5.95935 -16.0571
ltibia 29.9849
lfoot -27.0052 -2.38376
ltoes 3.73388
